#!OML:ASF E:\motion texture\Top Level 1\Subject 1\Session 1\male.ASF
:FULLY-SPECIFIED
:DEGREES
177
root 16.6495 16.9041 5.23313 -272.662 -83.2326 286.151
lowerback 16.9971 -0.527457 4.12031
upperback 8.27746 -0.578828 4.23151
thorax -0.65772 -0.514844 2.23157
lowerneck -16.407 -0.197409 -3.63287
upperneck -0.960419 -0.00504265 5.10967
head 2.58707 0.110642 2.3462
rclavicle 7.15625e-015 1.53064e-014
rhumerus -4.47628 21.8077 -91.7159
rradius 73.494
rwrist 0.723844
rhand -19.5508 -37.6631
rfingers 7.12502
rthumb 6.77345 -67.5348
lclavicle 7.15625e-015 1.53064e-014
lhumerus -11.3048 -18.7656 103.237
lradius 67.536
lwrist 42.3254
lhand -3.51674 23.0006
lfingers 7.12502
lthumb 22.218 51.7436
rfemur -28.576 -5.72533 28.0658
rtibia 62.9135
rfoot -6.79938 -14.0147
rtoes -11.8466
lfemur -48.8884 2.124 -11.531
ltibia 30.6323
lfoot -1.08803 6.06201
ltoes -4.46356
178
root 16.4353 16.9102 5.22853 -276.641 -83.1986 289.797
lowerback 16.7685 -0.416109 4.0374
upperback 8.15842 -0.435428 4.21771
thorax -0.668649 -0.437874 2.23553
lowerneck -16.4108 -0.359517 -3.72902
upperneck -0.847657 -0.20827 5.26748
head 2.63991 0.0180112 2.40528
rclavicle 5.96354e-016 2.06736e-014
rhumerus -4.99295 21.6287 -91.7569
rradius 73.8717
rwrist -0.649737
rhand -19.0563 -38.0855
rfingers 7.12502
rthumb 7.25077 -67.9413
lclavicle 5.96354e-016 2.06736e-014
lhumerus -12.0671 -18.8439 103.183
lradius 67.7221
lwrist 42.2817
lhand -3.36423 22.771
lfingers 7.12502
lthumb 22.3644 51.4965
rfemur -28.6588 -5.8929 27.9524
rtibia 63.8229
rfoot -5.76701 -13.921
rtoes -10.9773
lfemur -48.4674 1.8574 -11.7907
ltibia 31.4684
lfoot -1.28273 5.57034
ltoes -3.96418
179
root 16.2222 16.9183 5.22384 -280.722 -83.1411 293.552
lowerback 16.5475 -0.305454 3.94846
upperback 8.04067 -0.293307 4.20139
thorax -0.682061 -0.361726 2.24122
lowerneck -16.42 -0.525835 -3.83354
upperneck -0.735788 -0.416157 5.4329
head 2.69462 -0.0765985 2.46829
rclavicle -9.54166e-015 1.31198e-014
rhumerus -5.46436 21.4914 -91.7795
rradius 74.2185
rwrist -1.9936
rhand -18.5595 -38.5218
rfingers 7.12502
rthumb 7.73037 -68.3605
lclavicle -9.54166e-015 1.31198e-014
lhumerus -12.794 -18.8819 103.122
lradius 67.8569
lwrist 42.1987
lhand -3.2015 22.5637
lfingers 7.12502
lthumb 22.5206 51.2704
rfemur -28.7988 -6.06893 27.8396
rtibia 64.7004
rfoot -4.78618 -13.8267
rtoes -10.0124
lfemur -48.0149 1.57117 -12.0505
ltibia 32.288
lfoot -1.51728 5.0881
ltoes -3.48028
180
root 16.01 16.9285 5.21905 -284.873 -83.055 297.385
lowerback 16.3345 -0.196016 3.85602
upperback 7.92559 -0.153011 4.18357
thorax -0.696613 -0.28668 2.24834
lowerneck -16.4305 -0.696713 -3.94136
upperneck -0.629197 -0.629906 5.60094
head 2.74889 -0.174069 2.53236
rclavicle -3.57812e-015 1.35174e-014
rhumerus -5.88705 21.3965 -91.7823
rradius 74.5288
rwrist -3.29905
rhand -18.0515 -38.9581
rfingers 7.12502
rthumb 8.22061 -68.7782
lclavicle -3.57812e-015 1.35174e-014
lhumerus -13.4841 -18.8749 103.055
lradius 67.9386
lwrist 42.073
lhand -3.02145 22.3745
lfingers 7.12502
lthumb 22.6934 51.0601
rfemur -28.9919 -6.25592 27.7298
rtibia 65.538
rfoot -3.86554 -13.7353
rtoes -8.96821
lfemur -47.5268 1.26351 -12.306
ltibia 33.0802
lfoot -1.78972 4.61971
ltoes -3.01988
181
root 15.7991 16.9405 5.2141 -289.028 -82.939 301.233
lowerback 16.1284 -0.0864443 3.76168
upperback 7.80894 -0.0120291 4.1621
thorax -0.716322 -0.211278 2.25323
lowerneck -16.4414 -0.872121 -4.05429
upperneck -0.524449 -0.849338 5.77525
head 2.8039 -0.274112 2.59915
rclavicle 2.40529e-014 5.36719e-014
rhumerus -6.27123 21.3415 -91.7701
rradius 74.8054
rwrist -4.55801
rhand -17.5295 -39.3865
rfingers 7.12502
rthumb 8.72442 -69.1862
lclavicle 2.40529e-014 5.36719e-014
lhumerus -14.1474 -18.8256 102.979
lradius 67.9687
lwrist 41.9044
lhand -2.83498 22.2232
lfingers 7.12502
lthumb 22.8723 50.8868
rfemur -29.2419 -6.45217 27.6232
rtibia 66.3294
rfoot -3.01994 -13.651
rtoes -7.8781
lfemur -47.0078 0.937476 -12.5562
ltibia 33.8365
lfoot -2.09624 4.16662
ltoes -2.58361
182
root 15.5892 16.9546 5.209 -293.177 -82.7889 305.084
lowerback 15.9296 0.0215482 3.66515
upperback 7.69503 0.126747 4.13986
thorax -0.736849 -0.137158 2.25954
lowerneck -16.4564 -1.05187 -4.17313
upperneck -0.423925 -1.07381 5.95249
head 2.85948 -0.376555 2.66771
rclavicle 1.59028e-015 2.0276e-014
rhumerus -6.61071 21.3311 -91.736
rradius 75.0486
rwrist -5.775
rhand -16.9857 -39.7988
rfingers 7.12502
rthumb 9.24916 -69.5759
lclavicle 1.59028e-015 2.0276e-014
lhumerus -14.7776 -18.7303 102.896
lradius 67.9467
lwrist 41.6909
lhand -2.64504 22.1057
lfingers 7.12502
lthumb 23.0546 50.7466
rfemur -29.5391 -6.66338 27.5201
rtibia 67.0645
rfoot -2.25262 -13.5776
rtoes -6.76117
lfemur -46.4507 0.590193 -12.8002
ltibia 34.5459
lfoot -2.43447 3.72945
ltoes -2.17224
183
root 15.3805 16.9703 5.20377 -297.246 -82.6059 308.866
lowerback 15.7357 0.128316 3.56704
upperback 7.58257 0.263889 4.11461
thorax -0.758243 -0.0639045 2.2644
lowerneck -16.4724 -1.23527 -4.29463
upperneck -0.327901 -1.30309 6.13293
head 2.91499 -0.481296 2.7375
rclavicle -7.95139e-016 -3.97569e-016
rhumerus -6.90799 21.3653 -91.6841
rradius 75.259
rwrist -6.94858
rhand -16.4073 -40.1903
rfingers 7.12502
rthumb 9.80717 -69.942
lclavicle -7.95139e-016 -3.97569e-016
lhumerus -15.3782 -18.585 102.801
lradius 67.872
lwrist 41.4327
lhand -2.45075 22.0209
lfingers 7.12502
lthumb 23.241 50.6384
rfemur -29.8837 -6.88657 27.4196
rtibia 67.7375
rfoot -1.57017 -13.5202
rtoes -5.63431
lfemur -45.8574 0.226257 -13.0382
ltibia 35.2019
lfoot -2.80381 3.31156
ltoes -1.78693
184
root 15.173 16.9877 5.19831 -301.211 -82.3903 312.555
lowerback 15.5451 0.234663 3.46511
upperback 7.47146 0.400096 4.0876
thorax -0.779916 0.00876242 2.27025
lowerneck -16.6708 -1.41431 -4.32546
upperneck 0.135633 -1.54709 6.46093
head 2.77261 -0.569153 2.56731
rclavicle -1.86858e-014 -1.66979e-014
rhumerus -7.16466 21.4428 -91.6115
rradius 75.4395
rwrist -8.07988
rhand -15.7919 -40.5545
rfingers 7.12502
rthumb 10.4009 -70.2773
lclavicle -1.86858e-014 -1.66979e-014
lhumerus -15.9532 -18.3898 102.696
lradius 67.747
lwrist 41.1294
lhand -2.25017 21.9842
lfingers 7.12502
lthumb 23.4334 50.5773
rfemur -30.2723 -7.12381 27.3203
rtibia 68.3401
rfoot -0.974871 -13.4846
rtoes -4.50727
lfemur -45.2285 -0.154075 -13.2713
ltibia 35.7983
lfoot -3.20209 2.91391
ltoes -1.43202
185
root 14.9667 17.0067 5.19264 -305.034 -82.1401 316.115
lowerback 15.3597 0.340068 3.36439
upperback 7.36086 0.535511 4.05827
thorax -0.803652 0.0810292 2.27362
lowerneck -16.6901 -1.6055 -4.45554
upperneck 0.229151 -1.7864 6.65551
head 2.8213 -0.677266 2.63113
rclavicle 9.54166e-015 3.1408e-014
rhumerus -7.38255 21.5634 -91.518
rradius 75.5913
rwrist -9.16759
rhand -15.1211 -40.8976
rfingers 7.12502
rthumb 11.048 -70.5868
lclavicle 9.54166e-015 3.1408e-014
lhumerus -16.5061 -18.1461 102.578
lradius 67.5744
lwrist 40.784
lhand -2.0561 21.9828
lfingers 7.12502
lthumb 23.6196 50.5521
rfemur -30.6993 -7.37593 27.2245
rtibia 68.8633
rfoot -0.467927 -13.4762
rtoes -3.40049
lfemur -44.564 -0.549056 -13.4969
ltibia 36.3305
lfoot -3.62779 2.53627
ltoes -1.11118
